<svg xmlns="http://www.w3.org/2000/svg" width="740" height="740" fill="none">
  <path fill="url(#a)" fill-rule="evenodd" d="M290 45c0-24.853 20.147-45 45-45h70c24.853 0 45 20.147 45 45v62.425c0 11.53 7.521 21.648 18.168 26.073 10.663 4.431 23.045 2.548 31.21-5.617l44.061-44.061c17.574-17.574 46.066-17.574 63.64 0l49.497 49.497c17.574 17.574 17.574 46.066 0 63.64l-44.416 44.416c-8.035 8.035-9.902 20.213-5.553 30.711C610.958 282.586 620.936 290 632.304 290H695c24.853 0 45 20.147 45 45v70c0 24.853-20.147 45-45 45h-62.561c-11.449 0-21.497 7.468-25.884 18.042-4.39 10.581-2.515 22.86 5.584 30.96l44.437 44.437c17.574 17.574 17.574 46.066 0 63.64l-49.497 49.497c-17.574 17.574-46.066 17.574-63.64 0l-44.437-44.437c-8.099-8.1-20.379-9.975-30.96-5.585C457.468 610.942 450 620.99 450 632.439V695c0 24.853-20.147 45-45 45h-70c-24.853 0-45-20.147-45-45v-62.697c0-11.368-7.414-21.345-17.916-25.696-10.497-4.349-22.676-2.482-30.71 5.553l-44.417 44.416c-17.574 17.574-46.066 17.574-63.64 0L83.82 607.079c-17.574-17.574-17.574-46.066 0-63.64l44.062-44.062c8.165-8.165 10.047-20.546 5.616-31.209C129.074 457.521 118.955 450 107.425 450H45c-24.853 0-45-20.147-45-45v-70c0-24.853 20.147-45 45-45h62.561c11.449 0 21.497-7.468 25.885-18.042 4.39-10.581 2.515-22.86-5.585-30.96L83.82 196.957c-17.574-17.574-17.574-46.066 0-63.64l49.497-49.497c17.574-17.574 46.066-17.574 63.64 0l44.041 44.041c8.1 8.1 20.38 9.975 30.96 5.585C282.532 129.058 290 119.01 290 107.561V45Zm270 324.5C560 474.158 475.158 559 370.5 559S181 474.158 181 369.5 265.842 180 370.5 180 560 264.842 560 369.5ZM370.5 442c40.041 0 72.5-32.459 72.5-72.5S410.541 297 370.5 297 298 329.459 298 369.5s32.459 72.5 72.5 72.5Z" clip-rule="evenodd"/>
  <defs>
    <linearGradient id="a" x1="769" x2="56.5" y1="7" y2="690" gradientUnits="userSpaceOnUse">
      <stop stop-color="#0029FF"/>
      <stop offset=".572" stop-color="#A614FF"/>
      <stop offset="1" stop-color="#EB00FF"/>
    </linearGradient>
  </defs>
</svg>
